<?xml version="1.0" standalone="no"?>
<!DOCTYPE svg PUBLIC "-//W3C//DTD SVG 20010904//EN"
 "http://www.w3.org/TR/2001/REC-SVG-20010904/DTD/svg10.dtd">
<svg version="1.0" xmlns="http://www.w3.org/2000/svg"
 width="512.000000pt" height="512.000000pt" viewBox="0 0 512.000000 512.000000"
 preserveAspectRatio="xMidYMid meet">
<metadata>
Created by potrace 1.14, written by Peter Selinger 2001-2017
</metadata>
<g transform="translate(0.000000,512.000000) scale(0.100000,-0.100000)"
fill="#000000" stroke="none">
<path d="M795 4231 c-11 -5 -31 -21 -45 -36 l-25 -27 0 -289 0 -289 33 -32
c28 -28 39 -33 82 -33 43 0 54 5 82 32 29 29 33 40 36 102 l4 69 62 6 c33 4
80 9 104 12 23 3 42 2 42 -3 0 -5 -12 -33 -26 -63 -59 -122 -214 -470 -214
-480 0 -6 -17 3 -37 19 -38 30 -117 64 -126 54 -3 -3 -11 15 -19 39 -16 55
-88 128 -148 149 -57 21 -363 27 -386 8 -19 -16 -18 -130 2 -199 12 -39 29
-66 68 -106 71 -70 119 -84 286 -84 l126 0 47 -96 c39 -82 44 -99 35 -120 -11
-23 -15 -24 -122 -25 -61 0 -122 -2 -135 -5 -82 -15 -174 -89 -212 -171 -18
-39 -24 -73 -28 -173 l-6 -125 -41 -55 c-23 -30 -49 -69 -57 -85 -25 -50 -41
-164 -52 -369 -3 -63 -8 -83 -25 -101 -12 -13 -30 -51 -41 -86 -33 -105 -20
-238 36 -364 23 -51 28 -77 30 -169 l4 -110 -34 -37 c-56 -63 -70 -150 -35
-227 66 -146 339 -255 845 -336 17 -3 44 -7 60 -10 17 -3 55 -8 85 -11 30 -3
66 -8 80 -10 14 -2 52 -6 85 -10 33 -3 78 -8 100 -10 136 -15 289 -26 595 -41
318 -16 1307 -9 1520 11 19 2 82 6 140 10 58 3 116 8 130 10 14 2 61 6 105 10
44 4 87 8 95 10 8 1 47 6 85 9 39 4 111 14 160 21 50 8 108 17 130 20 153 22
388 81 510 127 150 58 234 118 275 197 36 71 22 167 -34 229 l-34 37 3 110 c3
93 7 119 30 169 32 72 52 162 54 241 2 72 -28 177 -60 211 -16 18 -22 38 -25
86 -15 309 -28 362 -114 478 l-40 54 -1 100 c-1 121 -3 138 -30 194 -28 56
-86 114 -143 140 -60 29 -71 30 -201 31 -108 1 -110 2 -122 27 -11 23 -7 36
35 120 l47 94 125 0 c167 0 216 14 286 84 39 40 56 67 68 106 19 64 21 181 4
198 -20 20 -301 16 -363 -5 -60 -22 -152 -108 -161 -151 -5 -24 -13 -31 -55
-41 -26 -7 -67 -26 -90 -43 -22 -16 -42 -28 -44 -26 -1 2 -12 23 -23 48 -89
199 -175 387 -196 431 -15 29 -26 57 -26 61 0 5 19 7 43 4 23 -3 70 -8 105
-12 l62 -7 0 -54 c0 -70 22 -117 65 -137 57 -27 116 -15 150 32 19 26 20 43
20 314 l0 288 -33 32 c-27 28 -40 33 -80 33 -59 0 -98 -26 -113 -77 -7 -21
-15 -36 -18 -34 -3 2 -49 7 -101 10 -52 4 -115 9 -140 11 -53 5 -172 13 -285
20 -44 3 -114 7 -155 10 -455 27 -1369 27 -1805 0 -27 -2 -99 -6 -160 -9 -126
-8 -228 -15 -300 -21 -27 -3 -90 -7 -140 -11 -49 -3 -93 -8 -97 -10 -3 -2 -9
9 -13 25 -13 62 -102 107 -160 82z m66 -81 c18 -10 19 -24 19 -270 0 -246 -1
-260 -19 -270 -25 -13 -27 -13 -45 6 -14 13 -16 52 -16 269 0 231 2 255 18
264 21 13 20 13 43 1z m3447 -4 c9 -5 12 -72 12 -266 0 -249 -1 -260 -20 -270
-14 -8 -26 -8 -40 0 -19 10 -20 21 -20 268 0 164 4 262 10 268 12 12 39 12 58
0z m-1073 -40 c39 -2 133 -6 210 -10 77 -4 159 -9 182 -11 23 -2 88 -6 145
-10 57 -4 119 -9 138 -10 19 -2 80 -6 135 -10 55 -4 103 -9 108 -12 4 -2 7
-56 7 -120 l0 -116 -47 7 c-27 3 -79 8 -118 11 -101 9 -106 10 -155 55 -76 69
-159 110 -263 130 -160 31 -1803 34 -2017 4 -100 -14 -223 -76 -301 -152 -14
-14 -38 -26 -55 -28 -55 -5 -149 -15 -197 -21 l-48 -5 3 117 c2 96 6 119 18
120 8 1 53 5 100 9 47 4 105 9 130 11 70 6 196 14 305 20 55 3 126 8 158 10
31 2 144 7 250 11 105 3 194 8 195 9 5 4 1022 -4 1117 -9z m-1069 -241 c-3
-49 -5 -94 -6 -100 0 -6 -50 -11 -123 -13 -67 -1 -166 -5 -221 -7 l-99 -4 6
96 c4 53 11 99 17 103 6 4 70 8 143 9 72 1 132 3 133 4 1 1 37 2 79 2 l77 1
-6 -91z m1209 80 c221 -13 255 -20 340 -70 92 -54 145 -128 238 -335 14 -30
38 -84 54 -120 84 -183 253 -567 253 -573 0 -4 -44 -7 -98 -7 l-98 0 -59 123
c-195 408 -297 605 -332 643 -48 53 -124 101 -188 119 -72 21 -161 24 -730 31
l-510 6 1 52 c1 28 3 73 5 100 l3 48 520 -6 c287 -3 557 -8 601 -11z m-1731
-97 c-4 -50 -7 -98 -8 -105 -1 -7 -30 -26 -63 -43 -34 -17 -85 -54 -113 -83
-52 -52 -109 -161 -345 -654 l-59 -123 -98 0 c-54 0 -98 3 -98 8 0 5 130 301
170 387 5 11 57 125 115 254 107 238 118 256 184 326 64 67 178 117 281 123
l40 3 -6 -93z m1326 -176 c0 -4 -177 -184 -392 -399 l-393 -393 -345 0 c-327
0 -347 -1 -375 -20 -26 -17 -47 -20 -172 -20 -79 0 -143 2 -143 5 0 5 50 110
216 452 113 235 157 295 242 331 66 28 84 31 262 38 85 4 156 7 157 8 7 6 943
4 943 -2z m-150 -397 l-395 -395 -65 0 -65 0 395 395 395 395 65 0 65 0 -395
-395z m685 356 c95 -42 127 -85 252 -340 114 -232 213 -440 213 -447 0 -2 -64
-4 -142 -4 -126 0 -147 3 -173 20 -29 19 -48 20 -575 20 l-545 0 395 394 395
394 68 -9 c37 -4 87 -17 112 -28z m-2911 -257 c61 -32 80 -63 84 -145 l4 -70
-128 2 c-102 1 -136 5 -164 19 -68 35 -110 104 -110 181 l0 41 138 -4 c115 -2
143 -6 176 -24z m4243 -29 c-7 -68 -36 -118 -90 -153 -38 -25 -49 -27 -175
-31 l-135 -3 6 55 c8 78 45 133 113 167 32 16 60 19 163 20 l124 0 -6 -55z
m-3984 -200 c32 -33 33 -35 3 -104 l-24 -55 -36 72 c-33 66 -45 120 -30 135 9
9 55 -17 87 -48z m3472 -85 l-37 -73 -24 53 c-14 30 -22 61 -18 72 8 25 42 57
79 73 30 13 30 13 33 -20 2 -23 -8 -56 -33 -105z m-2725 -272 c-1 -171 11
-898 16 -993 11 -222 11 -229 -8 -233 -23 -4 -71 81 -103 183 -50 157 -63 277
-60 525 2 124 6 236 9 250 3 14 10 63 16 110 16 125 20 143 32 157 14 17 98
17 98 1z m280 4 c0 -4 -7 -18 -16 -31 -33 -47 -22 -192 30 -389 38 -143 106
-284 183 -377 l51 -63 6 -133 c3 -74 8 -181 12 -238 l6 -103 -38 6 c-22 3 -57
8 -79 11 -61 9 -90 14 -212 36 -110 21 -113 22 -114 48 -1 14 -2 44 -4 66 -11
174 -17 370 -20 743 l-4 432 99 0 c55 0 100 -3 100 -8z m1277 -35 c34 -34 38
-42 38 -90 -2 -157 -75 -401 -167 -554 -41 -69 -133 -163 -192 -198 -79 -46
-154 -67 -251 -71 -111 -4 -169 8 -262 52 -169 80 -294 271 -365 557 -38 151
-42 250 -13 289 44 59 29 58 627 55 l548 -2 37 -38z m463 28 c6 -8 13 -24 15
-37 1 -13 8 -63 15 -113 6 -49 14 -106 16 -125 3 -19 7 -125 8 -235 6 -297
-23 -477 -102 -635 -36 -73 -38 -75 -87 -87 -88 -23 -338 -71 -400 -78 -33 -4
-67 -8 -75 -10 -66 -17 -759 -29 -774 -14 -3 2 -8 61 -11 129 -3 69 -8 160
-10 203 -3 42 -2 77 1 77 3 0 24 -11 47 -24 121 -70 318 -94 455 -55 274 78
447 302 531 688 38 175 38 215 -4 314 -7 16 6 17 178 17 149 0 187 -3 197 -15z
m-2222 -82 c-4 -32 -10 -71 -13 -88 -14 -92 -20 -214 -19 -415 1 -191 4 -241
23 -330 19 -90 48 -186 76 -252 6 -15 -6 -12 -77 13 -87 32 -96 36 -221 93
-285 130 -564 344 -748 574 l-59 73 0 97 c0 124 12 165 63 219 69 72 67 72
553 73 l431 0 -9 -57z m3227 37 c98 -45 135 -120 135 -271 l0 -98 -59 -73
c-234 -290 -580 -527 -973 -668 -43 -16 -78 -27 -78 -25 0 1 7 20 16 41 21 49
52 154 65 219 18 95 24 181 24 375 -1 190 -5 267 -26 420 -12 85 -12 82 -10
93 0 4 196 7 434 7 400 -1 435 -3 472 -20z m-4136 -641 c218 -217 492 -394
801 -517 142 -56 426 -138 540 -156 19 -3 58 -10 87 -15 28 -6 77 -13 108 -16
31 -4 65 -8 76 -10 137 -27 794 -26 924 0 11 2 43 7 70 10 440 52 920 230
1250 463 163 116 374 317 452 431 4 6 28 -24 58 -75 35 -57 51 -157 59 -364 3
-72 2 -78 -40 -155 -69 -126 -171 -283 -281 -433 l-101 -138 -79 -23 c-43 -12
-89 -27 -103 -31 -149 -50 -319 -29 -590 71 -181 67 -153 63 -254 35 -50 -14
-139 -37 -198 -49 l-108 -24 0 36 c0 21 -5 42 -12 49 -17 17 -1159 17 -1176 0
-7 -7 -12 -27 -12 -46 0 -34 0 -35 -37 -28 -67 11 -86 15 -227 51 l-138 36
-102 -40 c-96 -37 -286 -94 -351 -106 -131 -23 -196 -16 -388 43 l-89 27 -92
125 c-78 106 -153 214 -203 295 -7 11 -39 67 -72 124 -58 103 -59 103 -55 175
8 170 20 285 36 326 10 27 58 101 72 111 5 4 31 -21 59 -55 28 -33 80 -91 116
-127z m-251 -549 c44 -74 114 -184 156 -243 41 -59 78 -112 81 -118 4 -5 -15
-1 -42 9 -264 103 -245 94 -264 138 -33 73 -47 147 -45 224 3 65 20 140 30
129 2 -2 40 -65 84 -139z m4752 82 c20 -85 -10 -268 -53 -325 -13 -17 -288
-129 -296 -121 -3 3 -1 8 4 12 23 16 208 295 275 414 24 42 47 75 51 73 4 -3
12 -27 19 -53z m-4604 -501 c166 -64 398 -141 469 -157 69 -15 183 -12 275 6
99 20 274 72 374 113 l58 24 72 -19 c39 -11 80 -21 91 -23 11 -3 67 -15 125
-28 l105 -24 3 -117 3 -118 -28 6 c-15 4 -41 9 -58 12 -16 3 -94 21 -171 40
l-142 35 -93 -39 c-259 -109 -419 -139 -573 -107 -125 26 -404 124 -581 205
-33 15 -70 30 -82 34 -16 5 -23 15 -24 34 0 15 -1 64 -3 110 -1 45 -1 82 0 82
0 0 81 -31 180 -69z m4528 17 c-1 -29 -3 -78 -3 -108 l-1 -56 -127 -53 c-71
-29 -137 -57 -148 -62 -160 -71 -397 -140 -500 -144 -130 -6 -305 37 -504 125
l-73 32 -67 -17 c-36 -10 -82 -21 -101 -25 -19 -5 -77 -17 -129 -29 -52 -12
-96 -21 -98 -21 -2 0 -2 53 -1 117 l3 117 35 8 c19 4 49 9 65 12 17 3 89 21
161 39 122 32 134 33 165 20 19 -8 84 -31 144 -52 275 -95 432 -109 618 -53
118 35 341 115 470 168 45 18 85 33 88 34 3 0 4 -24 3 -52z m-1834 -268 l0
-240 -520 0 -520 0 0 240 0 240 520 0 520 0 0 -240z m-2540 -118 c413 -153
555 -156 909 -15 l124 49 103 -27 c57 -15 119 -30 136 -32 18 -3 59 -11 91
-18 l57 -12 0 -61 c0 -35 5 -67 12 -74 17 -17 1159 -17 1176 0 7 7 12 39 12
73 l0 61 128 28 c157 34 146 32 211 49 52 14 55 14 115 -13 61 -28 228 -87
269 -96 170 -37 231 -40 345 -19 140 26 513 159 700 250 53 26 58 23 68 -41
21 -144 -208 -256 -703 -344 -61 -11 -131 -22 -155 -25 -23 -3 -54 -7 -68 -10
-14 -2 -47 -7 -75 -10 -27 -3 -68 -7 -90 -9 -413 -46 -742 -61 -1350 -61 -403
0 -635 6 -860 20 -232 15 -328 23 -475 40 -19 3 -57 7 -85 10 -98 10 -212 27
-310 45 -526 97 -743 212 -696 369 l11 39 133 -58 c72 -32 193 -80 267 -108z"/>
<path d="M292 2028 c-18 -18 -16 -29 38 -142 170 -361 369 -650 486 -706 58
-28 134 -22 245 21 76 29 233 121 277 162 46 42 24 71 -63 81 -102 11 -214 55
-360 141 -73 43 -186 119 -240 162 -89 70 -122 97 -185 153 -41 36 -92 82
-114 103 -41 38 -64 45 -84 25z m283 -303 c49 -38 100 -80 114 -92 l26 -21
-21 -24 c-12 -12 -29 -38 -38 -55 -9 -18 -19 -33 -21 -33 -5 0 -97 156 -149
254 -26 49 -31 65 -18 55 10 -8 59 -45 107 -84z m320 -222 c74 -43 171 -87
249 -113 l68 -22 -48 -29 c-133 -78 -266 -114 -320 -86 -31 17 -85 71 -127
127 l-26 35 20 45 c11 24 31 59 45 78 l26 33 31 -20 c18 -10 55 -32 82 -48z"/>
<path d="M4740 1999 c-25 -23 -64 -58 -86 -79 -77 -72 -249 -205 -349 -272
-184 -122 -343 -193 -465 -205 -102 -10 -107 -43 -18 -109 131 -96 274 -160
379 -171 75 -7 127 17 200 95 75 79 124 146 214 297 78 131 225 422 225 447 0
19 -21 38 -39 38 -9 0 -36 -19 -61 -41z m-105 -246 c-55 -100 -146 -253 -151
-253 -2 0 -11 15 -20 33 -9 17 -26 43 -38 56 l-21 23 35 28 c19 15 78 62 130
104 52 42 97 76 98 76 2 0 -13 -30 -33 -67z m-235 -276 l30 -59 -33 -45 c-43
-60 -110 -121 -142 -129 -43 -11 -143 16 -238 65 -50 25 -92 51 -94 56 -2 6
18 16 44 23 69 19 187 73 283 130 99 59 100 58 150 -41z"/>
</g>
</svg>
